<?xml version="1.0" encoding="utf-8"?>
<!-- Generator: Adobe Illustrator 26.5.0, SVG Export Plug-In . SVG Version: 6.00 Build 0)  -->
<svg version="1.1" id="Layer_1" xmlns="http://www.w3.org/2000/svg" xmlns:xlink="http://www.w3.org/1999/xlink" x="0px" y="0px"
	 viewBox="0 0 500 500" style="enable-background:new 0 0 500 500;" xml:space="preserve">
<style type="text/css">
	.st0{fill:#010101;}
	.st1{font-family:'Montserrat-Bold';}
	.st2{font-size:107.6154px;}
	.st3{fill:none;stroke:#010101;stroke-width:5;stroke-miterlimit:10;}
</style>
<path class="st0" d="M170.11,111.56v28.68c0,15.58-32.76,22.96-50.92,22.96c-17.27,0-50.92-7.88-50.92-22.96v-35.61l50.92,27.52
	C119.18,132.14,170.11,111.56,170.11,111.56z M124.37,50.02L51.28,82.56l67.9,36.78l62.24-24.99v40.55h11.32V88.22L124.37,50.02z
	 M198.4,163.19h-22.63c3.27-5.66,5.66-14.15,5.66-22.63h11.32C192.74,149.13,194.95,156.73,198.4,163.19z"/>
<path class="st0" d="M419,197.15h-79.22c-15.62,0-28.29,12.67-28.29,28.29v79.22c0,15.62,12.67,28.29,28.29,28.29H419
	c15.63,0,28.29-12.67,28.29-28.29v-79.22C447.29,209.82,434.63,197.15,419,197.15z M402.03,236.75h-10.89
	c-3.48,0-6.09,1.43-6.09,5.03v6.29h16.97l-1.35,16.97h-15.63v45.27h-16.97v-45.27h-11.32v-16.97h11.32v-10.88
	c0-11.44,6.02-17.41,19.58-17.41h14.37V236.75z"/>
<text transform="matrix(1 0 0 1 51.5777 431.5475)" class="st0 st1 st2">CA</text>
<line class="st3" x1="227.58" y1="151.35" x2="302.31" y2="190.21"/>
<line class="st3" x1="222.35" y1="374.8" x2="295.59" y2="334.45"/>
<polygon class="st0" points="212.19,380.5 247.46,380.5 229.82,349.96 "/>
</svg>
