<?xml version="1.0" encoding="utf-8"?>
<!-- Generator: Adobe Illustrator 26.5.0, SVG Export Plug-In . SVG Version: 6.00 Build 0)  -->
<svg version="1.1" id="Layer_1" xmlns="http://www.w3.org/2000/svg" xmlns:xlink="http://www.w3.org/1999/xlink" x="0px" y="0px"
	 viewBox="0 0 178 132" style="enable-background:new 0 0 178 132;" xml:space="preserve">
<style type="text/css">
	.st0{fill-rule:evenodd;clip-rule:evenodd;fill:#FFFFFF;filter:url(#Adobe_OpacityMaskFilter);}
	.st1{mask:url(#mask0_00000085244744564492793750000011974003299212695684_);}
	.st2{fill:#0065A9;}
	.st3{fill:#007ACC;}
	.st4{fill:#1F9CF0;}
	.st5{opacity:0.25;}
	.st6{fill-rule:evenodd;clip-rule:evenodd;fill:url(#SVGID_1_);}
</style>
<defs>
	<filter id="Adobe_OpacityMaskFilter" filterUnits="userSpaceOnUse" x="38.97" y="16.26" width="100.06" height="99.48">
		<feColorMatrix  type="matrix" values="1 0 0 0 0  0 1 0 0 0  0 0 1 0 0  0 0 0 1 0"/>
	</filter>
</defs>
<mask maskUnits="userSpaceOnUse" x="38.97" y="16.26" width="100.06" height="99.48" id="mask0_00000085244744564492793750000011974003299212695684_">
	<path class="st0" d="M109.94,115.32c1.57,0.61,3.37,0.57,4.96-0.19l20.59-9.91c2.16-1.04,3.54-3.23,3.54-5.63V32.41
		c0-2.4-1.38-4.59-3.54-5.63l-20.59-9.91c-2.09-1-4.53-0.76-6.36,0.57c-0.26,0.19-0.51,0.4-0.74,0.64L68.39,54.04L51.22,41.01
		c-1.6-1.21-3.83-1.11-5.32,0.24l-5.51,5.01c-1.82,1.65-1.82,4.51,0,6.16L55.28,66L40.39,79.58c-1.81,1.65-1.81,4.51,0,6.16
		l5.51,5.01c1.48,1.35,3.72,1.45,5.32,0.24l17.17-13.03l39.41,35.96C108.42,114.54,109.15,115.01,109.94,115.32z M114.05,43.3
		L84.14,66l29.91,22.7V43.3z"/>
</mask>
<g class="st1">
	<path class="st2" d="M135.49,26.8l-20.6-9.92c-2.39-1.15-5.24-0.66-7.11,1.21l-67.45,61.5c-1.81,1.65-1.81,4.51,0,6.16l5.51,5.01
		c1.49,1.35,3.72,1.45,5.32,0.24l81.23-61.62c2.73-2.07,6.64-0.12,6.64,3.3v-0.24C139.03,30.03,137.65,27.84,135.49,26.8z"/>
	<g>
		<path class="st3" d="M135.49,105.2l-20.6,9.92c-2.39,1.15-5.24,0.66-7.11-1.21l-67.45-61.5c-1.81-1.65-1.81-4.51,0-6.16l5.51-5.01
			c1.49-1.35,3.72-1.45,5.32-0.24l81.23,61.62c2.73,2.07,6.64,0.12,6.64-3.3v0.24C139.03,101.97,137.65,104.16,135.49,105.2z"/>
	</g>
	<g>
		<path class="st4" d="M114.89,115.13c-2.39,1.15-5.24,0.66-7.11-1.21c2.31,2.31,6.25,0.67,6.25-2.59V20.67
			c0-3.26-3.94-4.9-6.25-2.59c1.87-1.87,4.72-2.36,7.11-1.21l20.6,9.91c2.16,1.04,3.54,3.23,3.54,5.63v67.17
			c0,2.4-1.38,4.59-3.54,5.63L114.89,115.13z"/>
	</g>
	<g class="st5">
		
			<linearGradient id="SVGID_1_" gradientUnits="userSpaceOnUse" x1="88.9696" y1="113.7422" x2="88.9696" y2="14.2578" gradientTransform="matrix(1 0 0 -1 0 130)">
			<stop  offset="0" style="stop-color:#FFFFFF"/>
			<stop  offset="1" style="stop-color:#FFFFFF;stop-opacity:0"/>
		</linearGradient>
		<path class="st6" d="M109.88,115.32c1.58,0.61,3.37,0.57,4.96-0.19l20.59-9.91c2.16-1.04,3.54-3.23,3.54-5.63V32.41
			c0-2.4-1.38-4.59-3.54-5.63l-20.59-9.91c-2.09-1-4.53-0.76-6.36,0.57c-0.26,0.19-0.51,0.4-0.74,0.64L68.32,54.04L51.16,41.01
			c-1.6-1.21-3.83-1.11-5.32,0.24l-5.51,5.01c-1.82,1.65-1.82,4.51,0,6.16L55.22,66L40.33,79.58c-1.81,1.65-1.81,4.51,0,6.16
			l5.51,5.01c1.48,1.35,3.72,1.45,5.32,0.24l17.17-13.03l39.41,35.96C108.36,114.54,109.09,115.01,109.88,115.32z M113.98,43.3
			L84.08,66l29.91,22.7V43.3z"/>
	</g>
</g>
</svg>
