<?xml version="1.0" encoding="utf-8"?>
<!-- Generator: Adobe Illustrator 26.5.0, SVG Export Plug-In . SVG Version: 6.00 Build 0)  -->
<svg version="1.1" id="Layer_1" xmlns="http://www.w3.org/2000/svg" xmlns:xlink="http://www.w3.org/1999/xlink" x="0px" y="0px"
	 viewBox="0 0 500 300" style="enable-background:new 0 0 500 300;" xml:space="preserve">
<style type="text/css">
	.st0{fill:#679E63;}
	.st1{fill-rule:evenodd;clip-rule:evenodd;fill:#333333;}
	.st2{fill-rule:evenodd;clip-rule:evenodd;fill:#679E63;}
	.st3{clip-path:url(#XMLID_00000114059328248192929590000003997433314803185821_);}
	.st4{fill:none;}
	.st5{fill:url(#SVGID_1_);}
	.st6{fill:url(#SVGID_00000039116188038367838850000013242289209968312992_);}
	.st7{fill:url(#SVGID_00000092415681501620093410000001186499308020909488_);}
	.st8{fill:url(#SVGID_00000176740123479921494680000017468385246906055579_);}
	.st9{fill:url(#SVGID_00000122715224043966828310000001150948703445915785_);}
	.st10{fill:url(#SVGID_00000103261274938955460950000017073244897805314493_);}
</style>
<g>
	<g>
		<path class="st0" d="M247.59,278.53c-1.38,0-2.76-0.36-3.98-1.06l-12.66-7.49c-1.89-1.06-0.97-1.43-0.34-1.65
			c2.52-0.88,3.03-1.08,5.72-2.6c0.28-0.16,0.65-0.1,0.94,0.07l9.72,5.77c0.35,0.2,0.85,0.2,1.17,0l37.91-21.88
			c0.35-0.2,0.58-0.61,0.58-1.03v-43.74c0-0.43-0.23-0.83-0.59-1.04l-37.89-21.86c-0.35-0.2-0.82-0.2-1.17,0l-37.88,21.87
			c-0.37,0.21-0.6,0.62-0.6,1.04v43.74c0,0.42,0.23,0.82,0.6,1.01l10.38,6c5.63,2.82,9.08-0.5,9.08-3.83v-43.19
			c0-0.61,0.49-1.09,1.1-1.09h4.81c0.6,0,1.1,0.48,1.1,1.09v43.19c0,7.52-4.09,11.83-11.22,11.83c-2.19,0-3.92,0-8.73-2.37
			l-9.94-5.72c-2.46-1.42-3.98-4.07-3.98-6.92v-43.74c0-2.84,1.52-5.5,3.98-6.91l37.91-21.9c2.4-1.36,5.59-1.36,7.97,0l37.9,21.9
			c2.45,1.42,3.98,4.07,3.98,6.91v43.74c0,2.84-1.53,5.49-3.98,6.92l-37.9,21.88C250.37,278.17,249,278.53,247.59,278.53z"/>
		<path class="st0" d="M259.3,248.39c-16.59,0-20.06-7.61-20.06-14c0-0.61,0.49-1.09,1.1-1.09h4.9c0.55,0,1,0.39,1.09,0.93
			c0.74,4.99,2.95,7.51,12.98,7.51c7.99,0,11.38-1.81,11.38-6.04c0-2.44-0.96-4.26-13.37-5.47c-10.37-1.03-16.79-3.32-16.79-11.61
			c0-7.65,6.45-12.21,17.25-12.21c12.14,0,18.15,4.21,18.91,13.26c0.03,0.31-0.08,0.61-0.29,0.84c-0.21,0.22-0.5,0.35-0.8,0.35
			h-4.92c-0.51,0-0.96-0.36-1.06-0.86c-1.18-5.25-4.05-6.93-11.84-6.93c-8.72,0-9.73,3.04-9.73,5.31c0,2.76,1.2,3.56,12.97,5.12
			c11.65,1.54,17.18,3.72,17.18,11.91C278.2,243.66,271.31,248.39,259.3,248.39z"/>
	</g>
	<g>
		<path class="st0" d="M313.96,202.52c0,4.02-3.29,7.31-7.31,7.31c-3.98,0-7.31-3.25-7.31-7.31c0-4.14,3.4-7.31,7.31-7.31
			C310.6,195.21,313.96,198.38,313.96,202.52z M300.53,202.5c0,3.4,2.74,6.15,6.11,6.15c3.4,0,6.15-2.8,6.15-6.15
			c0-3.4-2.78-6.11-6.15-6.11C303.31,196.39,300.53,199.06,300.53,202.5z M303.91,198.42h2.82c0.97,0,2.86,0,2.86,2.17
			c0,1.51-0.97,1.82-1.55,2.01c1.12,0.08,1.2,0.81,1.35,1.86c0.08,0.66,0.2,1.78,0.43,2.16h-1.74c-0.04-0.39-0.31-2.47-0.31-2.59
			c-0.11-0.46-0.27-0.7-0.85-0.7h-1.43v3.28h-1.59V198.42z M305.46,202.01h1.27c1.04,0,1.24-0.73,1.24-1.16
			c0-1.12-0.77-1.12-1.2-1.12h-1.31V202.01z"/>
	</g>
	<path class="st1" d="M130.21,107.38c0-1.75-0.92-3.35-2.43-4.22L87.6,80.04c-0.68-0.4-1.44-0.61-2.21-0.64c-0.07,0-0.36,0-0.42,0
		c-0.77,0.03-1.53,0.24-2.22,0.64l-40.19,23.13c-1.5,0.87-2.43,2.47-2.43,4.22l0.09,62.28c0,0.87,0.45,1.67,1.21,2.1
		c0.75,0.45,1.67,0.45,2.41,0l23.88-13.68c1.51-0.9,2.43-2.48,2.43-4.21v-29.1c0-1.73,0.92-3.34,2.42-4.2l10.17-5.86
		c0.76-0.44,1.59-0.65,2.43-0.65c0.83,0,1.68,0.21,2.41,0.65l10.17,5.86c1.5,0.86,2.43,2.47,2.43,4.2v29.1
		c0,1.73,0.93,3.32,2.43,4.21l23.88,13.68c0.75,0.45,1.68,0.45,2.43,0c0.74-0.42,1.21-1.23,1.21-2.1L130.21,107.38z"/>
	<path class="st1" d="M323.58,21.78c-0.75-0.42-1.67-0.41-2.41,0.03c-0.74,0.44-1.2,1.23-1.2,2.09v61.67c0,0.61-0.32,1.17-0.85,1.47
		c-0.53,0.3-1.17,0.3-1.7,0l-10.07-5.8c-1.5-0.87-3.35-0.86-4.85,0l-40.2,23.2c-1.5,0.87-2.43,2.47-2.43,4.2v46.41
		c0,1.73,0.93,3.34,2.43,4.21l40.2,23.22c1.5,0.87,3.35,0.87,4.86,0l40.21-23.22c1.5-0.87,2.43-2.47,2.43-4.21V39.37
		c0-1.76-0.95-3.38-2.49-4.24L323.58,21.78z M319.85,139.81c0,0.43-0.23,0.83-0.61,1.05l-13.8,7.96c-0.37,0.22-0.84,0.22-1.21,0
		l-13.8-7.96c-0.38-0.22-0.61-0.62-0.61-1.05v-15.94c0-0.43,0.23-0.83,0.61-1.05l13.8-7.97c0.38-0.22,0.84-0.22,1.21,0l13.8,7.97
		c0.37,0.22,0.61,0.62,0.61,1.05V139.81z"/>
	<g>
		<path class="st1" d="M457.45,123.46c1.5-0.87,2.42-2.47,2.42-4.2v-11.25c0-1.73-0.92-3.33-2.42-4.2L417.5,80.62
			c-1.5-0.87-3.36-0.88-4.86-0.01l-40.19,23.2c-1.5,0.87-2.43,2.47-2.43,4.2v46.4c0,1.75,0.94,3.36,2.45,4.22l39.94,22.76
			c1.47,0.84,3.28,0.85,4.76,0.03l24.16-13.43c0.77-0.43,1.24-1.23,1.25-2.11c0.01-0.88-0.46-1.69-1.22-2.12l-40.44-23.21
			c-0.76-0.43-1.22-1.24-1.22-2.11v-14.54c0-0.87,0.46-1.67,1.21-2.1l12.59-7.26c0.75-0.43,1.67-0.43,2.42,0l12.59,7.26
			c0.75,0.43,1.21,1.24,1.21,2.1v11.44c0,0.87,0.46,1.67,1.22,2.1c0.75,0.43,1.68,0.43,2.43,0L457.45,123.46z"/>
		<path class="st2" d="M414.48,121.28c0.29-0.17,0.64-0.17,0.93,0l7.71,4.45c0.29,0.17,0.47,0.47,0.47,0.81v8.91
			c0,0.33-0.18,0.64-0.47,0.81l-7.71,4.45c-0.29,0.17-0.64,0.17-0.93,0l-7.71-4.45c-0.29-0.17-0.47-0.47-0.47-0.81v-8.91
			c0-0.33,0.18-0.64,0.47-0.81L414.48,121.28z"/>
	</g>
	<g>
		<defs>
			<path id="XMLID_143_" d="M197.46,80.86c-1.49-0.86-3.33-0.86-4.83,0l-39.98,23.07c-1.49,0.86-2.42,2.46-2.42,4.18v46.18
				c0,1.72,0.92,3.32,2.41,4.18l39.98,23.09c1.49,0.86,3.34,0.86,4.83,0l39.97-23.09c1.49-0.86,2.41-2.46,2.41-4.18v-46.18
				c0-1.72-0.92-3.32-2.41-4.18L197.46,80.86z"/>
		</defs>
		
			<linearGradient id="XMLID_00000108273226280730398790000010443758499186267808_" gradientUnits="userSpaceOnUse" x1="211.2977" y1="98.0365" x2="175.1807" y2="171.715">
			<stop  offset="0" style="stop-color:#3F873F"/>
			<stop  offset="0.3296" style="stop-color:#3F8B3D"/>
			<stop  offset="0.6367" style="stop-color:#3E9638"/>
			<stop  offset="0.9341" style="stop-color:#3DA92E"/>
			<stop  offset="1" style="stop-color:#3DAE2B"/>
		</linearGradient>
		
			<use xlink:href="#XMLID_143_"  style="overflow:visible;fill-rule:evenodd;clip-rule:evenodd;fill:url(#XMLID_00000108273226280730398790000010443758499186267808_);"/>
		<clipPath id="XMLID_00000118386282498853839720000007939749116382551728_">
			<use xlink:href="#XMLID_143_"  style="overflow:visible;"/>
		</clipPath>
		<g style="clip-path:url(#XMLID_00000118386282498853839720000007939749116382551728_);">
			<path class="st4" d="M192.55,80.86l-40.06,23.07c-1.49,0.86-2.58,2.46-2.58,4.18v46.18c0,1.14,0.49,2.22,1.25,3.07l45.01-77
				C194.96,80.06,193.65,80.22,192.55,80.86z"/>
			<path class="st4" d="M196.39,182.02c0.39-0.11,0.77-0.26,1.13-0.47l40.02-23.09c1.49-0.86,2.51-2.46,2.51-4.18v-46.18
				c0-1.27-0.57-2.47-1.46-3.35L196.39,182.02z"/>
			<linearGradient id="SVGID_1_" gradientUnits="userSpaceOnUse" x1="188.9585" y1="136.5957" x2="290.2999" y2="61.7192">
				<stop  offset="0.1376" style="stop-color:#3F873F"/>
				<stop  offset="0.4016" style="stop-color:#52A044"/>
				<stop  offset="0.7129" style="stop-color:#64B749"/>
				<stop  offset="0.9081" style="stop-color:#6ABF4B"/>
			</linearGradient>
			<path class="st5" d="M237.51,103.93l-40.09-23.07c-0.4-0.23-0.82-0.39-1.25-0.5l-45.01,77c0.39,0.44,0.84,0.82,1.35,1.11
				l40.16,23.09c1.14,0.66,2.49,0.81,3.73,0.47l42.2-77.27C238.26,104.43,237.9,104.15,237.51,103.93z"/>
		</g>
		<g style="clip-path:url(#XMLID_00000118386282498853839720000007939749116382551728_);">
			<path class="st4" d="M240.05,154.28v-46.18c0-1.72-1.04-3.32-2.54-4.18l-40.09-23.07c-0.46-0.27-0.96-0.44-1.47-0.54l43.95,75.08
				C239.99,155.03,240.05,154.66,240.05,154.28z"/>
			<path class="st4" d="M152.49,103.93c-1.49,0.86-2.58,2.46-2.58,4.18v46.18c0,1.72,1.1,3.32,2.59,4.18l40.16,23.09
				c0.94,0.54,2.04,0.74,3.09,0.6l-43.02-78.37L152.49,103.93z"/>
			
				<linearGradient id="SVGID_00000036949792721100620720000002817778319996918188_" gradientUnits="userSpaceOnUse" x1="148.8276" y1="72.5318" x2="241.2593" y2="72.5318">
				<stop  offset="0.0919" style="stop-color:#6ABF4B"/>
				<stop  offset="0.2871" style="stop-color:#64B749"/>
				<stop  offset="0.5984" style="stop-color:#52A044"/>
				<stop  offset="0.8624" style="stop-color:#3F873F"/>
			</linearGradient>
			<polygon style="fill:url(#SVGID_00000036949792721100620720000002817778319996918188_);" points="191.3,72.37 190.75,72.69 
				191.49,72.69 			"/>
			
				<linearGradient id="SVGID_00000106868476350355568290000011071542594379383211_" gradientUnits="userSpaceOnUse" x1="148.8276" y1="131.1856" x2="241.2593" y2="131.1856">
				<stop  offset="0.0919" style="stop-color:#6ABF4B"/>
				<stop  offset="0.2871" style="stop-color:#64B749"/>
				<stop  offset="0.5984" style="stop-color:#52A044"/>
				<stop  offset="0.8624" style="stop-color:#3F873F"/>
			</linearGradient>
			<path style="fill:url(#SVGID_00000106868476350355568290000011071542594379383211_);" d="M237.53,158.47
				c1.16-0.67,2.03-1.79,2.36-3.07l-43.95-75.08c-1.15-0.23-2.36-0.05-3.4,0.54l-39.82,22.93l43.02,78.37
				c0.61-0.08,1.22-0.28,1.77-0.6L237.53,158.47z"/>
			
				<linearGradient id="SVGID_00000062159802099562607980000012934274569227928462_" gradientUnits="userSpaceOnUse" x1="148.8276" y1="157.573" x2="241.2593" y2="157.573">
				<stop  offset="0.0919" style="stop-color:#6ABF4B"/>
				<stop  offset="0.2871" style="stop-color:#64B749"/>
				<stop  offset="0.5984" style="stop-color:#52A044"/>
				<stop  offset="0.8624" style="stop-color:#3F873F"/>
			</linearGradient>
			<polygon style="fill:url(#SVGID_00000062159802099562607980000012934274569227928462_);" points="241.26,157.72 240.99,157.27 
				240.99,157.88 			"/>
			
				<linearGradient id="SVGID_00000040562879440148890790000000410379988398048922_" gradientUnits="userSpaceOnUse" x1="148.8276" y1="169.4994" x2="241.2593" y2="169.4994">
				<stop  offset="0.0919" style="stop-color:#6ABF4B"/>
				<stop  offset="0.2871" style="stop-color:#64B749"/>
				<stop  offset="0.5984" style="stop-color:#52A044"/>
				<stop  offset="0.8624" style="stop-color:#3F873F"/>
			</linearGradient>
			<path style="fill:url(#SVGID_00000040562879440148890790000000410379988398048922_);" d="M237.53,158.47l-40.02,23.09
				c-0.55,0.32-1.15,0.52-1.77,0.6l0.8,1.45l44.45-25.73v-0.61l-1.1-1.88C239.57,156.67,238.7,157.79,237.53,158.47z"/>
			
				<linearGradient id="SVGID_00000100374890829404227890000000000378622486695851_" gradientUnits="userSpaceOnUse" x1="254.7255" y1="95.8521" x2="197.7195" y2="212.1444">
				<stop  offset="0" style="stop-color:#3F873F"/>
				<stop  offset="0.3296" style="stop-color:#3F8B3D"/>
				<stop  offset="0.6367" style="stop-color:#3E9638"/>
				<stop  offset="0.9341" style="stop-color:#3DA92E"/>
				<stop  offset="1" style="stop-color:#3DAE2B"/>
			</linearGradient>
			<path style="fill:url(#SVGID_00000100374890829404227890000000000378622486695851_);" d="M237.53,158.47l-40.02,23.09
				c-0.55,0.32-1.15,0.52-1.77,0.6l0.8,1.45l44.45-25.73v-0.61l-1.1-1.88C239.57,156.67,238.7,157.79,237.53,158.47z"/>
		</g>
	</g>
</g>
</svg>
