<?xml version="1.0" encoding="utf-8"?>
<!-- Generator: Adobe Illustrator 26.5.0, SVG Export Plug-In . SVG Version: 6.00 Build 0)  -->
<svg version="1.1" id="Layer_1" xmlns="http://www.w3.org/2000/svg" xmlns:xlink="http://www.w3.org/1999/xlink" x="0px" y="0px"
	 viewBox="0 0 32.65 26.32" style="enable-background:new 0 0 32.65 26.32;" xml:space="preserve">
<style type="text/css">
	.st0{fill:#61DAFB;}
</style>
<path class="st0" d="M23.6,9.6L23.6,9.6c-0.24-0.08-0.49-0.16-0.74-0.23c0.04-0.17,0.08-0.34,0.11-0.51
	c0.56-2.72,0.19-4.91-1.06-5.63c-1.2-0.69-3.16,0.03-5.14,1.75c-0.2,0.17-0.39,0.35-0.57,0.53c-0.12-0.12-0.25-0.24-0.38-0.35
	c-2.08-1.84-4.16-2.62-5.41-1.9c-1.2,0.69-1.55,2.75-1.05,5.33C9.41,8.84,9.47,9.1,9.53,9.35C9.24,9.43,8.95,9.52,8.68,9.62
	c-2.44,0.85-3.99,2.18-3.99,3.56c0,1.43,1.67,2.86,4.21,3.72c0.21,0.07,0.41,0.13,0.62,0.19c-0.07,0.27-0.13,0.55-0.18,0.82
	c-0.48,2.53-0.11,4.55,1.09,5.23c1.23,0.71,3.31-0.02,5.33-1.78c0.16-0.14,0.32-0.29,0.48-0.44c0.2,0.19,0.41,0.38,0.62,0.57
	c1.95,1.68,3.89,2.36,5.08,1.67c1.23-0.71,1.63-2.88,1.11-5.5c-0.04-0.2-0.09-0.41-0.14-0.61c0.15-0.04,0.29-0.09,0.43-0.13
	c2.64-0.87,4.35-2.29,4.35-3.73C27.69,11.79,26.09,10.45,23.6,9.6z M17.42,5.72c1.7-1.48,3.29-2.06,4.01-1.64l0,0
	c0.77,0.44,1.07,2.24,0.59,4.58c-0.03,0.15-0.07,0.31-0.1,0.46c-1.01-0.23-2.04-0.39-3.08-0.49c-0.59-0.85-1.24-1.66-1.94-2.43
	C17.06,6.04,17.24,5.88,17.42,5.72z M11.48,14.35c0.21,0.4,0.43,0.8,0.65,1.19c0.23,0.4,0.47,0.79,0.72,1.18
	c-0.71-0.08-1.42-0.19-2.12-0.34C10.94,15.73,11.19,15.05,11.48,14.35z M11.48,12.04c-0.29-0.68-0.53-1.35-0.73-1.99
	c0.66-0.15,1.36-0.27,2.09-0.36c-0.24,0.38-0.48,0.77-0.71,1.16C11.91,11.25,11.69,11.64,11.48,12.04z M12,13.2
	c0.3-0.63,0.63-1.25,0.98-1.85v0c0.35-0.61,0.72-1.2,1.12-1.78c0.68-0.05,1.39-0.08,2.09-0.08c0.71,0,1.41,0.03,2.1,0.08
	c0.39,0.58,0.76,1.17,1.11,1.77c0.35,0.6,0.68,1.22,0.99,1.85c-0.31,0.63-0.64,1.25-0.99,1.86h0c-0.35,0.61-0.72,1.2-1.1,1.78
	c-0.68,0.05-1.39,0.07-2.11,0.07c-0.72,0-1.41-0.02-2.08-0.07c-0.4-0.58-0.77-1.17-1.12-1.78C12.64,14.45,12.31,13.83,12,13.2z
	 M20.25,15.54c0.23-0.4,0.45-0.81,0.67-1.22l0,0c0.29,0.66,0.55,1.34,0.77,2.02c-0.71,0.16-1.42,0.28-2.15,0.37
	C19.79,16.32,20.03,15.93,20.25,15.54L20.25,15.54z M20.91,12.04c-0.21-0.4-0.43-0.8-0.66-1.2l0,0c-0.22-0.39-0.46-0.77-0.7-1.15
	c0.73,0.09,1.44,0.22,2.1,0.37C21.43,10.74,21.19,11.4,20.91,12.04z M16.2,6.91c0.48,0.52,0.93,1.07,1.35,1.63
	c-0.91-0.04-1.81-0.04-2.72,0C15.29,7.95,15.74,7.4,16.2,6.91z M10.91,4.1c0.77-0.45,2.47,0.19,4.26,1.78
	c0.11,0.1,0.23,0.21,0.35,0.32c-0.71,0.76-1.36,1.57-1.96,2.42c-1.03,0.09-2.06,0.25-3.07,0.48c-0.06-0.23-0.11-0.47-0.16-0.71v0
	C9.9,6.19,10.18,4.52,10.91,4.1z M9.78,16.15c-0.19-0.05-0.38-0.11-0.57-0.18c-0.97-0.31-1.88-0.79-2.68-1.43
	c-0.46-0.32-0.77-0.81-0.86-1.37c0-0.84,1.25-1.91,3.33-2.63c0.26-0.09,0.53-0.17,0.79-0.25c0.31,0.99,0.68,1.96,1.12,2.9
	C10.48,14.15,10.1,15.14,9.78,16.15z M15.11,20.62c-0.75,0.69-1.62,1.24-2.57,1.61h0c-0.51,0.24-1.09,0.26-1.61,0.06
	c-0.73-0.42-1.03-2.03-0.62-4.2c0.05-0.26,0.1-0.51,0.17-0.76c1.02,0.22,2.06,0.37,3.1,0.45c0.6,0.86,1.26,1.67,1.97,2.44
	C15.4,20.36,15.26,20.49,15.11,20.62z M16.23,19.51c-0.47-0.5-0.93-1.06-1.38-1.66c0.44,0.02,0.89,0.03,1.35,0.03
	c0.47,0,0.93-0.01,1.39-0.03C17.16,18.43,16.71,18.98,16.23,19.51L16.23,19.51z M22.2,20.88c-0.04,0.56-0.32,1.08-0.75,1.43
	c-0.72,0.42-2.27-0.13-3.95-1.56c-0.19-0.16-0.38-0.34-0.58-0.53c0.7-0.77,1.34-1.59,1.93-2.45c1.05-0.09,2.09-0.25,3.12-0.48
	c0.05,0.19,0.09,0.37,0.12,0.56l0,0C22.31,18.84,22.35,19.87,22.2,20.88L22.2,20.88z M23.03,15.97L23.03,15.97
	c-0.13,0.04-0.25,0.08-0.39,0.12c-0.32-1-0.71-1.97-1.16-2.91c0.44-0.93,0.81-1.89,1.12-2.87c0.24,0.07,0.46,0.14,0.68,0.22
	c2.13,0.73,3.43,1.82,3.43,2.65C26.71,14.06,25.31,15.22,23.03,15.97L23.03,15.97z"/>
<path class="st0" d="M16.19,11.12c1.13,0,2.05,0.92,2.05,2.05s-0.92,2.05-2.05,2.05c-1.13,0-2.05-0.92-2.05-2.05c0,0,0,0,0,0
	C14.14,12.04,15.06,11.12,16.19,11.12C16.19,11.12,16.19,11.12,16.19,11.12"/>
</svg>
